<svg width="25" height="24" viewBox="0 0 25 24" fill="none" shape-rendering="crispEdges" xmlns="http://www.w3.org/2000/svg">
<!-- Pixel runs are mechanically derived from the generated objective model. -->
<rect x="5" y="7" width="5" height="1" fill="#FFFFFF"/>
<rect x="15" y="7" width="8" height="1" fill="#FFFFFF"/>
<rect x="3" y="8" width="3" height="1" fill="#FFFFFF"/>
<rect x="6" y="8" width="1" height="1" fill="#FF9EAB"/>
<rect x="7" y="8" width="2" height="1" fill="#642A2F"/>
<rect x="9" y="8" width="3" height="1" fill="#FFFFFF"/>
<rect x="13" y="8" width="3" height="1" fill="#FFFFFF"/>
<rect x="16" y="8" width="3" height="1" fill="#FF9EAB"/>
<rect x="19" y="8" width="1" height="1" fill="#FFFFFF"/>
<rect x="20" y="8" width="2" height="1" fill="#FF9EAB"/>
<rect x="22" y="8" width="2" height="1" fill="#FFFFFF"/>
<rect x="2" y="9" width="2" height="1" fill="#FFFFFF"/>
<rect x="4" y="9" width="1" height="1" fill="#642A2F"/>
<rect x="5" y="9" width="2" height="1" fill="#FF9EAB"/>
<rect x="7" y="9" width="2" height="1" fill="#642A2F"/>
<rect x="9" y="9" width="1" height="1" fill="#FF9EAB"/>
<rect x="10" y="9" width="1" height="1" fill="#642A2F"/>
<rect x="11" y="9" width="3" height="1" fill="#FFFFFF"/>
<rect x="14" y="9" width="4" height="1" fill="#FF9EAB"/>
<rect x="18" y="9" width="1" height="1" fill="#FFFFFF"/>
<rect x="19" y="9" width="1" height="1" fill="#FF9EAB"/>
<rect x="20" y="9" width="2" height="1" fill="#642A2F"/>
<rect x="22" y="9" width="1" height="1" fill="#FF9EAB"/>
<rect x="23" y="9" width="1" height="1" fill="#FFFFFF"/>
<rect x="1" y="10" width="2" height="1" fill="#FFFFFF"/>
<rect x="3" y="10" width="3" height="1" fill="#FF9EAB"/>
<rect x="6" y="10" width="1" height="1" fill="#642A2F"/>
<rect x="7" y="10" width="1" height="1" fill="#FFFFFF"/>
<rect x="8" y="10" width="1" height="1" fill="#642A2F"/>
<rect x="9" y="10" width="3" height="1" fill="#FF9EAB"/>
<rect x="12" y="10" width="2" height="1" fill="#FFFFFF"/>
<rect x="14" y="10" width="5" height="1" fill="#FF9EAB"/>
<rect x="19" y="10" width="2" height="1" fill="#642A2F"/>
<rect x="21" y="10" width="2" height="1" fill="#FF9EAB"/>
<rect x="23" y="10" width="1" height="1" fill="#FFFFFF"/>
<rect x="1" y="11" width="1" height="1" fill="#FFFFFF"/>
<rect x="2" y="11" width="1" height="1" fill="#642A2F"/>
<rect x="3" y="11" width="5" height="1" fill="#FF9EAB"/>
<rect x="8" y="11" width="1" height="1" fill="#642A2F"/>
<rect x="9" y="11" width="3" height="1" fill="#FF9EAB"/>
<rect x="12" y="11" width="1" height="1" fill="#642A2F"/>
<rect x="13" y="11" width="2" height="1" fill="#FFFFFF"/>
<rect x="15" y="11" width="8" height="1" fill="#FF9EAB"/>
<rect x="23" y="11" width="1" height="1" fill="#FFFFFF"/>
<rect x="1" y="12" width="3" height="1" fill="#FFFFFF"/>
<rect x="4" y="12" width="1" height="1" fill="#642A2F"/>
<rect x="5" y="12" width="1" height="1" fill="#FF9EAB"/>
<rect x="6" y="12" width="1" height="1" fill="#642A2F"/>
<rect x="7" y="12" width="5" height="1" fill="#FF9EAB"/>
<rect x="12" y="12" width="5" height="1" fill="#FFFFFF"/>
<rect x="17" y="12" width="1" height="1" fill="#FF9EAB"/>
<rect x="18" y="12" width="1" height="1" fill="#642A2F"/>
<rect x="19" y="12" width="3" height="1" fill="#FF9EAB"/>
<rect x="22" y="12" width="1" height="1" fill="#642A2F"/>
<rect x="23" y="12" width="1" height="1" fill="#FFFFFF"/>
<rect x="1" y="13" width="1" height="1" fill="#FFFFFF"/>
<rect x="2" y="13" width="1" height="1" fill="#642A2F"/>
<rect x="3" y="13" width="1" height="1" fill="#FFFFFF"/>
<rect x="4" y="13" width="1" height="1" fill="#642A2F"/>
<rect x="5" y="13" width="6" height="1" fill="#FF9EAB"/>
<rect x="11" y="13" width="3" height="1" fill="#FFFFFF"/>
<rect x="14" y="13" width="2" height="1" fill="#FF9EAB"/>
<rect x="16" y="13" width="1" height="1" fill="#642A2F"/>
<rect x="17" y="13" width="5" height="1" fill="#FF9EAB"/>
<rect x="22" y="13" width="1" height="1" fill="#642A2F"/>
<rect x="23" y="13" width="1" height="1" fill="#FFFFFF"/>
<rect x="1" y="14" width="1" height="1" fill="#FFFFFF"/>
<rect x="2" y="14" width="2" height="1" fill="#FF9EAB"/>
<rect x="4" y="14" width="1" height="1" fill="#642A2F"/>
<rect x="5" y="14" width="1" height="1" fill="#FF9EAB"/>
<rect x="6" y="14" width="1" height="1" fill="#642A2F"/>
<rect x="7" y="14" width="3" height="1" fill="#FF9EAB"/>
<rect x="10" y="14" width="1" height="1" fill="#642A2F"/>
<rect x="11" y="14" width="3" height="1" fill="#FFFFFF"/>
<rect x="14" y="14" width="1" height="1" fill="#642A2F"/>
<rect x="15" y="14" width="1" height="1" fill="#FF9EAB"/>
<rect x="16" y="14" width="3" height="1" fill="#642A2F"/>
<rect x="19" y="14" width="2" height="1" fill="#FF9EAB"/>
<rect x="21" y="14" width="1" height="1" fill="#642A2F"/>
<rect x="22" y="14" width="1" height="1" fill="#FF9EAB"/>
<rect x="23" y="14" width="1" height="1" fill="#FFFFFF"/>
<rect x="1" y="15" width="1" height="1" fill="#FFFFFF"/>
<rect x="2" y="15" width="5" height="1" fill="#642A2F"/>
<rect x="7" y="15" width="2" height="1" fill="#FF9EAB"/>
<rect x="9" y="15" width="1" height="1" fill="#642A2F"/>
<rect x="10" y="15" width="2" height="1" fill="#FF9EAB"/>
<rect x="12" y="15" width="3" height="1" fill="#FFFFFF"/>
<rect x="15" y="15" width="2" height="1" fill="#642A2F"/>
<rect x="17" y="15" width="1" height="1" fill="#FF9EAB"/>
<rect x="18" y="15" width="1" height="1" fill="#642A2F"/>
<rect x="19" y="15" width="2" height="1" fill="#FF9EAB"/>
<rect x="21" y="15" width="1" height="1" fill="#642A2F"/>
<rect x="22" y="15" width="1" height="1" fill="#FF9EAB"/>
<rect x="23" y="15" width="1" height="1" fill="#FFFFFF"/>
<rect x="1" y="16" width="12" height="1" fill="#FFFFFF"/>
<rect x="14" y="16" width="10" height="1" fill="#FFFFFF"/>
</svg>
